<svg xmlns="http://www.w3.org/2000/svg" width="640" height="454" viewBox="0 0 640 454" role="img" aria-label="Qwen3 8B, GGUF: tool-calling (95% interval)">
<style>
  text { font: 12px -apple-system, BlinkMacSystemFont, "Segoe UI", sans-serif; fill: #1f2328; }
  .muted { fill: #57606a; } .grid { stroke: #d0d7de; stroke-width: 1; } .axis { stroke: #8c959f; }
  .bg { fill: #ffffff; }
  @media (prefers-color-scheme: dark) {
    text { fill: #e6edf3; } .muted { fill: #8d96a0; } .grid { stroke: #30363d; } .axis { stroke: #6e7681; }
    .bg { fill: #0d1117; }
  }
</style>
<rect class="bg" width="640" height="454"/>
<text x="12" y="20" font-weight="600">Qwen3 8B, GGUF: tool-calling (95% interval)</text>
<line class="grid" x1="150.0" x2="150.0" y1="32" y2="426"/>
<text class="muted" x="150.0" y="446" text-anchor="middle">0</text>
<line class="grid" x1="255.0" x2="255.0" y1="32" y2="426"/>
<text class="muted" x="255.0" y="446" text-anchor="middle">0.25</text>
<line class="grid" x1="360.0" x2="360.0" y1="32" y2="426"/>
<text class="muted" x="360.0" y="446" text-anchor="middle">0.5</text>
<line class="grid" x1="465.0" x2="465.0" y1="32" y2="426"/>
<text class="muted" x="465.0" y="446" text-anchor="middle">0.75</text>
<line class="grid" x1="570.0" x2="570.0" y1="32" y2="426"/>
<text class="muted" x="570.0" y="446" text-anchor="middle">1</text>
<text x="142" y="53.0" text-anchor="end">Quail (GGUF) · simple python</text>
<rect x="150" y="41.0" width="399.0" height="16" rx="2" fill="#d9730d" opacity="0.85"/>
<line class="axis" x1="500.7" x2="564.2" y1="49.0" y2="49.0" stroke-width="2"/>
<text class="muted" x="570.2" y="53.0">0.95</text>
<text x="142" y="79.0" text-anchor="end">Quail (GGUF) · multiple</text>
<rect x="150" y="67.0" width="388.5" height="16" rx="2" fill="#2f6fdb" opacity="0.85"/>
<line class="axis" x1="486.6" x2="559.1" y1="75.0" y2="75.0" stroke-width="2"/>
<text class="muted" x="565.1" y="79.0">0.925</text>
<text x="142" y="105.0" text-anchor="end">Quail (GGUF) · parallel</text>
<rect x="150" y="93.0" width="336.0" height="16" rx="2" fill="#2f9e6e" opacity="0.85"/>
<line class="axis" x1="424.0" x2="525.9" y1="101.0" y2="101.0" stroke-width="2"/>
<text class="muted" x="531.9" y="105.0">0.8</text>
<text x="142" y="131.0" text-anchor="end">Quail (GGUF) · parallel multiple</text>
<rect x="150" y="119.0" width="357.0" height="16" rx="2" fill="#9b51e0" opacity="0.85"/>
<line class="axis" x1="447.9" x2="540.3" y1="127.0" y2="127.0" stroke-width="2"/>
<text class="muted" x="546.3" y="131.0">0.85</text>
<text x="142" y="157.0" text-anchor="end">Quail (GGUF) · irrelevance</text>
<rect x="150" y="145.0" width="378.0" height="16" rx="2" fill="#c93c3c" opacity="0.85"/>
<line class="axis" x1="473.2" x2="553.4" y1="153.0" y2="153.0" stroke-width="2"/>
<text class="muted" x="559.4" y="157.0">0.9</text>
<text x="142" y="183.0" text-anchor="end">llama-server · simple python</text>
<rect x="150" y="171.0" width="399.0" height="16" rx="2" fill="#6b7280" opacity="0.85"/>
<line class="axis" x1="500.7" x2="564.2" y1="179.0" y2="179.0" stroke-width="2"/>
<text class="muted" x="570.2" y="183.0">0.95</text>
<text x="142" y="209.0" text-anchor="end">llama-server · multiple</text>
<rect x="150" y="197.0" width="388.5" height="16" rx="2" fill="#b8860b" opacity="0.85"/>
<line class="axis" x1="486.6" x2="559.1" y1="205.0" y2="205.0" stroke-width="2"/>
<text class="muted" x="565.1" y="209.0">0.925</text>
<text x="142" y="235.0" text-anchor="end">llama-server · parallel</text>
<rect x="150" y="223.0" width="336.0" height="16" rx="2" fill="#d9730d" opacity="0.85"/>
<line class="axis" x1="424.0" x2="525.9" y1="231.0" y2="231.0" stroke-width="2"/>
<text class="muted" x="531.9" y="235.0">0.8</text>
<text x="142" y="261.0" text-anchor="end">llama-server · parallel multiple</text>
<rect x="150" y="249.0" width="357.0" height="16" rx="2" fill="#2f6fdb" opacity="0.85"/>
<line class="axis" x1="447.9" x2="540.3" y1="257.0" y2="257.0" stroke-width="2"/>
<text class="muted" x="546.3" y="261.0">0.85</text>
<text x="142" y="287.0" text-anchor="end">llama-server · irrelevance</text>
<rect x="150" y="275.0" width="378.0" height="16" rx="2" fill="#2f9e6e" opacity="0.85"/>
<line class="axis" x1="473.2" x2="553.4" y1="283.0" y2="283.0" stroke-width="2"/>
<text class="muted" x="559.4" y="287.0">0.9</text>
<text x="142" y="313.0" text-anchor="end">Ollama (GGUF) · simple python</text>
<rect x="150" y="301.0" width="399.0" height="16" rx="2" fill="#9b51e0" opacity="0.85"/>
<line class="axis" x1="500.7" x2="564.2" y1="309.0" y2="309.0" stroke-width="2"/>
<text class="muted" x="570.2" y="313.0">0.95</text>
<text x="142" y="339.0" text-anchor="end">Ollama (GGUF) · multiple</text>
<rect x="150" y="327.0" width="378.0" height="16" rx="2" fill="#c93c3c" opacity="0.85"/>
<line class="axis" x1="473.2" x2="553.4" y1="335.0" y2="335.0" stroke-width="2"/>
<text class="muted" x="559.4" y="339.0">0.9</text>
<text x="142" y="365.0" text-anchor="end">Ollama (GGUF) · parallel</text>
<rect x="150" y="353.0" width="346.5" height="16" rx="2" fill="#6b7280" opacity="0.85"/>
<line class="axis" x1="435.8" x2="533.3" y1="361.0" y2="361.0" stroke-width="2"/>
<text class="muted" x="539.3" y="365.0">0.825</text>
<text x="142" y="391.0" text-anchor="end">Ollama (GGUF) · parallel multiple</text>
<rect x="150" y="379.0" width="367.5" height="16" rx="2" fill="#b8860b" opacity="0.85"/>
<line class="axis" x1="460.3" x2="547.1" y1="387.0" y2="387.0" stroke-width="2"/>
<text class="muted" x="553.1" y="391.0">0.875</text>
<text x="142" y="417.0" text-anchor="end">Ollama (GGUF) · irrelevance</text>
<rect x="150" y="405.0" width="378.0" height="16" rx="2" fill="#d9730d" opacity="0.85"/>
<line class="axis" x1="473.2" x2="553.4" y1="413.0" y2="413.0" stroke-width="2"/>
<text class="muted" x="559.4" y="417.0">0.9</text>
</svg>